<?xml version="1.0" standalone="no"?>
<!DOCTYPE svg PUBLIC "-//W3C//DTD SVG 20010904//EN"
 "http://www.w3.org/TR/2001/REC-SVG-20010904/DTD/svg10.dtd">
<svg version="1.0" xmlns="http://www.w3.org/2000/svg"
 width="150.000000pt" height="150.000000pt" viewBox="0 0 150.000000 150.000000"
 preserveAspectRatio="xMidYMid meet">

<g transform="translate(0.000000,150.000000) scale(0.100000,-0.100000)"
fill="#000000" stroke="none">
<path d="M804 1419 c-18 -20 -23 -85 -14 -189 5 -54 -4 -211 -12 -216 -5 -3
-4 -12 3 -20 8 -10 8 -14 0 -14 -12 0 -8 -40 9 -84 11 -30 35 -35 27 -7 -4 15
0 19 15 16 45 -9 50 2 45 96 -4 69 -2 89 9 93 18 7 20 106 2 106 -10 0 -10 2
-1 8 14 9 33 95 33 149 0 67 -75 107 -116 62z"/>
<path d="M1071 1367 c-33 -16 -41 -50 -46 -187 -2 -63 -9 -130 -14 -147 -5
-18 -7 -33 -3 -33 4 0 -1 -5 -10 -11 -28 -16 -24 -75 7 -95 32 -21 50 -14 70
30 13 27 15 40 6 49 -6 8 -8 17 -4 20 3 4 0 14 -8 24 -12 15 -12 16 4 10 12
-5 17 -1 18 13 1 11 2 23 3 28 1 4 6 26 10 50 4 23 11 42 16 42 24 0 42 151
19 165 -5 4 -14 18 -19 31 -11 27 -16 28 -49 11z"/>
<path d="M533 1360 c-14 -6 -26 -26 -37 -63 -22 -74 -20 -94 9 -121 17 -16 21
-26 13 -34 -17 -17 0 -140 22 -162 16 -16 16 -19 4 -24 -10 -4 -13 -13 -9 -25
3 -10 8 -34 10 -54 5 -41 22 -87 31 -87 4 0 22 9 41 21 24 15 32 26 28 39 -4
12 1 22 11 28 12 7 15 15 9 28 -5 11 -9 21 -9 24 -1 3 -5 11 -9 17 -4 7 -10
56 -11 109 -3 62 -8 99 -16 104 -9 5 -9 9 -1 14 24 15 5 143 -27 179 -17 19
-26 20 -59 7z"/>
<path d="M1362 1064 c-27 -19 -75 -111 -68 -130 3 -8 -1 -14 -8 -14 -8 0 -20
-15 -27 -32 -15 -42 -16 -45 -18 -64 0 -8 -5 -13 -10 -10 -15 10 -37 -28 -35
-64 1 -45 12 -70 30 -70 8 0 14 8 15 18 0 10 3 12 6 5 2 -7 8 -13 13 -13 12 0
33 58 27 74 -4 9 2 16 16 20 23 5 57 53 57 78 0 8 11 25 25 38 14 13 25 31 25
41 0 10 5 21 10 24 15 9 12 68 -6 93 -18 26 -23 27 -52 6z"/>
<path d="M870 790 c-1 -14 -4 -19 -7 -12 -4 10 -8 10 -19 1 -10 -8 -14 -8 -14
0 0 6 -7 11 -15 11 -8 0 -15 -9 -15 -20 0 -25 -8 -25 -27 -2 -14 16 -14 16 -9
-1 5 -17 4 -17 -16 -2 -28 19 -38 19 -38 0 0 -21 -8 -19 -33 11 -21 24 -23 25
-57 10 -47 -20 -69 -47 -63 -80 4 -21 0 -28 -22 -36 -19 -7 -25 -15 -21 -27 4
-9 1 -20 -5 -24 -6 -4 -8 -12 -5 -18 10 -16 26 -4 26 20 0 25 21 24 50 -3 l24
-22 -30 -13 c-25 -10 -26 -18 -1 -14 4 1 7 -6 5 -16 -2 -10 4 -19 15 -21 10
-2 17 3 17 12 0 8 5 18 11 22 13 7 31 -15 22 -29 -3 -4 4 -11 16 -14 17 -4 20
-10 14 -31 -5 -22 -3 -24 16 -19 28 7 29 -22 1 -46 -13 -11 -17 -22 -12 -34 6
-16 7 -15 10 5 4 23 18 30 24 11 3 -8 10 -8 26 2 23 14 29 29 12 29 -5 0 -10
-4 -10 -10 0 -5 -5 -10 -10 -10 -7 0 -7 7 0 20 6 12 10 28 8 38 -1 9 1 23 6
31 6 10 5 12 -2 7 -7 -4 -12 -2 -12 5 0 7 -7 20 -16 30 -28 30 8 53 46 29 12
-8 13 -13 2 -30 -17 -28 7 -37 42 -15 16 10 33 14 47 10 15 -5 18 -9 9 -15 -9
-5 -9 -9 -1 -14 6 -4 11 -18 11 -31 0 -13 5 -27 10 -30 8 -5 7 -11 -1 -21 -6
-8 -9 -17 -6 -21 10 -10 38 19 33 34 -6 15 10 18 19 3 13 -21 34 -9 46 27 9
28 9 38 0 41 -6 2 -25 23 -41 47 -25 36 -28 48 -20 69 10 27 30 35 30 12 0
-16 45 -66 60 -66 18 0 11 18 -11 25 -20 7 -20 7 -2 28 10 11 13 17 6 14 -6
-4 -14 -3 -18 3 -3 6 4 10 18 10 23 0 67 -37 67 -56 0 -5 -7 0 -15 10 -8 11
-15 14 -15 8 0 -15 65 -82 78 -82 12 0 36 -29 37 -44 1 -11 13 -58 21 -86 4
-12 6 -13 14 0 5 8 5 19 0 26 -6 6 -7 14 -3 17 3 4 -2 17 -13 28 -19 22 -19
22 6 15 24 -7 24 -6 6 8 -17 14 -18 16 -3 16 22 0 44 46 43 89 -1 31 -9 40
-80 92 -93 66 -145 87 -162 64 -13 -17 -24 -9 -24 17 0 22 -16 24 -24 3 -8
-22 -35 -18 -46 8 -9 22 -9 22 -10 -3z m-110 -85 c13 -14 21 -25 18 -25 -2 0
-15 11 -28 25 -13 14 -21 25 -18 25 2 0 15 -11 28 -25z m130 -91 c0 -2 -7 -4
-15 -4 -8 0 -15 4 -15 10 0 5 7 7 15 4 8 -4 15 -8 15 -10z"/>
<path d="M127 723 c-21 -5 -39 -46 -31 -68 8 -21 51 -30 69 -15 10 8 15 9 15
2 0 -6 -10 -17 -22 -23 -13 -6 -25 -13 -27 -15 -6 -6 103 -104 134 -121 17 -9
39 -24 50 -34 11 -10 32 -30 48 -43 15 -14 27 -35 27 -47 0 -24 57 -115 76
-123 8 -3 16 21 22 67 7 46 8 73 2 75 -6 2 -8 8 -5 13 4 5 -1 6 -9 3 -9 -3
-16 -1 -16 5 0 6 -8 11 -19 11 -13 0 -22 13 -33 48 -13 39 -19 46 -37 44 -11
-2 -21 2 -21 7 0 6 4 11 9 11 4 0 6 11 3 25 -5 28 -12 31 -30 13 -9 -9 -12 -4
-12 26 0 33 -2 37 -20 31 -11 -3 -20 -2 -20 3 0 6 5 12 12 14 8 3 5 15 -11 36
-26 37 -41 41 -41 10 0 -12 -3 -18 -7 -14 -5 4 -8 18 -8 29 0 31 -39 31 -55 1
-7 -13 -19 -25 -27 -28 -8 -3 -11 -1 -8 4 3 6 1 10 -4 10 -22 0 -10 29 17 38
27 10 13 14 -21 5z m93 -23 c0 -5 -2 -10 -4 -10 -3 0 -8 5 -11 10 -3 6 -1 10
4 10 6 0 11 -4 11 -10z m-25 -30 c-3 -5 -12 -10 -18 -10 -7 0 -6 4 3 10 19 12
23 12 15 0z"/>
<path d="M831 524 c0 -11 3 -14 6 -6 3 7 2 16 -1 19 -3 4 -6 -2 -5 -13z"/>
<path d="M801 514 c0 -11 3 -14 6 -6 3 7 2 16 -1 19 -3 4 -6 -2 -5 -13z"/>
<path d="M810 471 c0 -11 -5 -21 -10 -23 -7 -2 -5 -14 4 -34 9 -17 17 -50 18
-75 3 -40 1 -44 -19 -41 -16 2 -23 -3 -26 -20 -4 -20 -4 -20 -6 5 -1 29 -36
71 -51 62 -12 -7 -13 -45 -2 -45 4 0 8 -17 10 -37 2 -26 -4 -43 -19 -59 -24
-26 -39 -23 -39 6 0 30 -19 34 -45 10 -15 -14 -25 -18 -30 -11 -8 14 2 31 20
31 7 0 17 10 21 22 7 22 33 54 35 44 1 -3 3 -10 4 -16 1 -5 3 -26 4 -45 1 -24
6 -35 16 -35 18 0 18 4 3 72 -14 63 -16 67 -28 48 -7 -11 -10 -5 -10 23 0 30
-4 37 -20 37 -11 0 -20 -6 -20 -12 -1 -9 -5 -7 -13 3 -10 14 -14 14 -25 3 -10
-11 -10 -14 1 -14 18 0 31 -60 17 -74 -5 -5 -10 -18 -10 -27 0 -10 -5 -19 -11
-21 -6 -2 -11 -16 -11 -31 0 -15 -4 -30 -9 -33 -17 -10 15 -54 55 -73 23 -10
42 -18 44 -16 2 2 -2 22 -9 44 -8 28 -17 40 -26 37 -18 -7 -16 9 3 25 13 10
19 8 40 -14 20 -21 23 -31 15 -46 -8 -14 -7 -22 4 -31 19 -16 37 -3 30 21 -8
24 11 25 24 2 8 -14 10 -11 16 20 7 36 18 46 29 28 4 -5 1 -11 -6 -13 -7 -3
-8 -9 -3 -18 6 -10 11 -9 23 6 13 18 14 17 9 -10 -6 -36 1 -56 19 -56 9 0 14
12 14 35 0 19 5 35 11 35 6 0 10 -15 9 -32 -1 -18 -1 -37 0 -43 1 -5 2 -14 1
-18 -1 -5 3 -6 9 -2 6 4 8 16 4 27 -4 15 -3 18 6 13 9 -6 11 -4 5 5 -14 23
-15 68 -1 80 12 9 14 4 10 -32 l-4 -43 14 45 c11 40 14 42 18 20 5 -21 5 -22
7 -4 0 12 7 27 15 33 21 17 8 51 -19 51 -44 0 -55 10 -55 50 0 22 -4 41 -9 44
-4 3 -8 16 -7 28 1 13 -5 28 -14 35 -13 11 -13 12 3 13 32 0 8 58 -25 60 -5 0
-8 -9 -8 -19z m44 -258 c4 -10 4 -14 0 -10 -4 4 -13 2 -21 -4 -16 -14 -17 3
-1 19 15 15 15 15 22 -5z m-94 -10 c0 -5 -7 -17 -15 -27 -12 -16 -18 -17 -28
-7 -10 10 -8 15 7 27 22 15 36 18 36 7z m100 -23 c0 -5 -5 -10 -11 -10 -5 0
-7 5 -4 10 3 6 8 10 11 10 2 0 4 -4 4 -10z"/>
<path d="M1100 468 c0 -4 -14 -8 -31 -8 -26 0 -30 -3 -27 -22 2 -17 11 -24 31
-26 25 -3 28 -7 23 -28 -5 -17 -2 -24 9 -24 8 0 15 -5 15 -11 0 -5 -5 -7 -10
-4 -18 11 -42 -15 -29 -31 6 -7 9 -19 6 -26 -4 -9 -6 -7 -6 4 -1 13 -7 15 -28
9 -24 -6 -28 -13 -28 -42 0 -19 5 -37 10 -41 6 -5 3 -19 -8 -39 -17 -30 -17
-31 -1 -18 16 12 17 12 11 -3 -3 -9 1 -22 10 -29 13 -11 19 -9 40 16 15 17 21
31 14 33 -19 6 -13 43 7 40 13 -2 17 4 17 27 1 17 7 44 14 60 24 56 8 172 -24
172 -8 0 -15 -4 -15 -9z m10 -22 c0 -3 -4 -8 -10 -11 -5 -3 -10 -1 -10 4 0 6
5 11 10 11 6 0 10 -2 10 -4z m-30 -16 c0 -5 -7 -10 -16 -10 -8 0 -12 5 -9 10
3 6 10 10 16 10 5 0 9 -4 9 -10z m-10 -274 c0 -3 -4 -8 -10 -11 -5 -3 -10 -1
-10 4 0 6 5 11 10 11 6 0 10 -2 10 -4z"/>
<path d="M583 455 c-8 -9 -6 -17 10 -31 27 -23 40 -24 49 -4 12 27 8 41 -9 38
-10 -1 -22 0 -28 4 -5 3 -15 0 -22 -7z"/>
<path d="M125 451 c-3 -5 -1 -12 5 -16 5 -3 10 1 10 9 0 18 -6 21 -15 7z"/>
<path d="M211 397 c-19 -9 -25 -20 -25 -44 -1 -36 17 -50 22 -17 2 17 10 21
40 19 32 -1 37 -4 34 -23 -3 -20 0 -21 30 -16 18 4 39 12 47 19 20 19 6 45
-26 47 -49 2 -52 3 -65 16 -15 15 -26 15 -57 -1z"/>
<path d="M522 358 c2 -21 0 -38 -4 -38 -4 0 -8 -7 -8 -15 0 -8 5 -15 11 -15 6
0 3 -7 -6 -16 -9 -9 -14 -23 -11 -31 3 -8 6 -23 6 -34 0 -10 6 -19 13 -19 22
0 28 173 7 194 -9 8 -11 2 -8 -26z"/>
<path d="M720 376 c0 -9 5 -16 10 -16 6 0 10 4 10 9 0 6 -4 13 -10 16 -5 3
-10 -1 -10 -9z"/>
<path d="M767 369 c6 -22 23 -26 23 -5 0 8 -6 16 -14 19 -10 4 -12 0 -9 -14z"/>
<path d="M1005 370 c-4 -6 -16 -10 -26 -7 -25 7 -24 3 6 -28 26 -25 41 -33 30
-15 -3 6 2 10 12 11 10 0 13 3 6 6 -27 10 -12 25 19 19 21 -4 29 -3 23 3 -17
16 -62 23 -70 11z"/>
<path d="M675 360 c3 -5 8 -10 11 -10 2 0 4 5 4 10 0 6 -5 10 -11 10 -5 0 -7
-4 -4 -10z"/>
<path d="M928 343 c7 -3 16 -2 19 1 4 3 -2 6 -13 5 -11 0 -14 -3 -6 -6z"/>
<path d="M952 311 c-11 -6 -10 -11 4 -25 19 -20 38 -8 28 17 -7 19 -13 20 -32
8z"/>
<path d="M225 300 c-3 -5 -1 -10 4 -10 6 0 11 5 11 10 0 6 -2 10 -4 10 -3 0
-8 -4 -11 -10z"/>
<path d="M970 221 c0 -11 -4 -22 -9 -25 -5 -3 -7 -15 -4 -25 3 -10 0 -22 -6
-25 -6 -4 -11 -19 -11 -34 1 -24 3 -22 16 13 24 63 33 105 23 111 -5 3 -9 -4
-9 -15z"/>
<path d="M180 200 c0 -5 5 -10 10 -10 6 0 10 5 10 10 0 6 -4 10 -10 10 -5 0
-10 -4 -10 -10z"/>
<path d="M270 179 c0 -5 5 -7 10 -4 6 3 10 8 10 11 0 2 -4 4 -10 4 -5 0 -10
-5 -10 -11z"/>
<path d="M767 105 c-4 -8 -2 -17 2 -20 5 -2 11 4 14 15 6 23 -8 27 -16 5z"/>
<path d="M1030 105 c0 -8 4 -15 10 -15 5 0 7 7 4 15 -4 8 -8 15 -10 15 -2 0
-4 -7 -4 -15z"/>
</g>
</svg>
