<?xml version="1.0" standalone="no"?>
<!DOCTYPE svg PUBLIC "-//W3C//DTD SVG 20010904//EN"
 "http://www.w3.org/TR/2001/REC-SVG-20010904/DTD/svg10.dtd">
<svg version="1.0" xmlns="http://www.w3.org/2000/svg"
 width="64.000000pt" height="64.000000pt" viewBox="0 0 64.000000 64.000000"
 preserveAspectRatio="xMidYMid meet">

<g transform="translate(0.000000,64.000000) scale(0.100000,-0.100000)"
fill="#000000" stroke="none">
<path d="M222 599 c-47 -24 -86 -68 -103 -117 -6 -18 -26 -47 -45 -66 -29 -29
-34 -41 -34 -79 0 -54 34 -102 80 -112 23 -5 34 -17 49 -49 10 -24 23 -46 29
-50 21 -13 22 14 2 53 -25 49 -25 47 1 54 12 3 19 11 16 19 -2 7 -11 11 -18 9
-8 -2 -28 -6 -46 -9 -71 -10 -112 90 -58 143 13 14 29 25 35 25 5 0 10 10 10
21 0 37 43 100 86 125 56 33 132 33 189 -1 47 -27 66 -52 84 -107 7 -20 21
-40 31 -43 28 -9 60 -53 60 -82 0 -14 -13 -38 -30 -55 -29 -28 -35 -30 -80
-24 -50 7 -83 -10 -41 -21 26 -7 26 -5 1 -54 -12 -22 -18 -44 -14 -50 9 -15
28 5 49 51 14 30 24 40 42 40 13 0 40 15 61 34 33 30 37 40 37 81 0 42 -4 50
-40 83 -22 20 -51 59 -65 86 -37 74 -93 109 -178 114 -54 2 -76 -1 -110 -19z"/>
<path d="M182 468 c-21 -21 -13 -48 21 -68 56 -34 97 -23 97 26 0 41 -87 73
-118 42z m88 -48 c0 -5 -7 -10 -15 -10 -8 0 -15 5 -15 10 0 6 7 10 15 10 8 0
15 -4 15 -10z"/>
<path d="M360 460 c-17 -17 -20 -33 -20 -100 0 -64 3 -80 15 -80 11 0 15 12
15 50 0 41 3 50 18 50 29 0 82 38 82 60 0 40 -76 54 -110 20z m40 -40 c0 -5
-7 -10 -15 -10 -8 0 -15 5 -15 10 0 6 7 10 15 10 8 0 15 -4 15 -10z"/>
<path d="M462 384 c-34 -23 -27 -83 11 -104 24 -13 30 -13 55 0 37 21 44 81
10 104 -12 9 -29 16 -38 16 -9 0 -26 -7 -38 -16z m63 -49 c0 -25 -4 -30 -25
-30 -16 0 -26 6 -28 18 -6 30 6 49 30 45 18 -2 23 -9 23 -33z"/>
<path d="M118 379 c-12 -6 -18 -22 -18 -45 0 -43 34 -64 75 -46 20 9 25 19 25
46 0 48 -40 70 -82 45z m49 -35 c8 -21 -13 -42 -28 -27 -13 13 -5 43 11 43 6
0 13 -7 17 -16z"/>
<path d="M253 228 c2 -9 25 -13 67 -13 42 0 65 4 68 13 3 9 -15 12 -68 12 -53
0 -71 -3 -67 -12z"/>
<path d="M246 192 c-3 -5 -8 -34 -12 -65 -6 -53 -5 -58 24 -86 21 -22 40 -31
62 -31 22 0 41 9 62 31 29 28 30 33 24 86 -7 62 -13 76 -27 67 -6 -3 -8 -27
-4 -59 6 -46 4 -56 -14 -74 -12 -12 -30 -21 -41 -21 -11 0 -29 9 -41 21 -18
18 -20 28 -14 74 6 49 -5 80 -19 57z"/>
</g>
</svg>
