<?xml version="1.0" standalone="no"?>
<!DOCTYPE svg PUBLIC "-//W3C//DTD SVG 20010904//EN"
 "http://www.w3.org/TR/2001/REC-SVG-20010904/DTD/svg10.dtd">
<svg version="1.0" xmlns="http://www.w3.org/2000/svg"
 width="50.000000pt" height="50.000000pt" viewBox="0 0 50.000000 50.000000"
 preserveAspectRatio="xMidYMid meet">

<g transform="translate(0.000000,50.000000) scale(0.100000,-0.100000)"
fill="#000000" stroke="none">
<path d="M440 471 c-14 -10 -36 -21 -50 -24 -30 -7 -380 -357 -380 -379 0 -8
11 -25 24 -37 19 -18 31 -21 55 -16 42 9 107 59 127 97 22 44 21 44 42 24 18
-16 21 -14 60 28 35 38 43 42 53 30 7 -8 22 -14 33 -12 19 3 21 10 22 63 0 37
9 84 23 121 12 33 21 75 19 92 l-3 31 -25 -18z m-9 -95 c-20 -59 -89 -162
-135 -206 l-27 -24 -42 42 -42 42 102 102 c134 134 159 117 30 -20 -59 -61
-55 -84 3 -27 38 37 60 67 105 140 26 42 29 17 6 -49z m-25 -174 c-4 -3 -12 0
-18 6 -9 9 -8 18 2 39 l14 28 4 -33 c2 -19 1 -37 -2 -40z m-204 -9 c10 -9 18
-21 18 -28 0 -27 -63 -97 -105 -117 l-45 -22 -22 22 -22 22 69 70 c38 39 74
70 79 70 5 0 18 -7 28 -17z"/>
<path d="M160 160 c0 -5 5 -10 10 -10 6 0 10 5 10 10 0 6 -4 10 -10 10 -5 0
-10 -4 -10 -10z"/>
<path d="M120 120 c0 -5 5 -10 10 -10 6 0 10 5 10 10 0 6 -4 10 -10 10 -5 0
-10 -4 -10 -10z"/>
<path d="M80 80 c0 -5 5 -10 10 -10 6 0 10 5 10 10 0 6 -4 10 -10 10 -5 0 -10
-4 -10 -10z"/>
<path d="M320 121 c-16 -40 -5 -73 23 -69 27 4 33 30 17 69 -16 37 -24 37 -40
0z m26 -48 c-11 -11 -19 6 -11 24 8 17 8 17 12 0 3 -10 2 -21 -1 -24z"/>
</g>
</svg>
