<?xml version="1.0" standalone="no"?>
<!DOCTYPE svg PUBLIC "-//W3C//DTD SVG 20010904//EN"
 "http://www.w3.org/TR/2001/REC-SVG-20010904/DTD/svg10.dtd">
<svg version="1.0" xmlns="http://www.w3.org/2000/svg"
 width="48.000000pt" height="48.000000pt" viewBox="0 0 48.000000 48.000000"
 preserveAspectRatio="xMidYMid meet">

<g transform="translate(0.000000,48.000000) scale(0.100000,-0.100000)"
fill="#000000" stroke="none">
<path d="M190 375 c-8 -10 -10 -30 -5 -61 6 -44 5 -45 -17 -42 -19 2 -23 8
-20 35 2 18 0 37 -3 43 -12 19 -35 -10 -35 -42 0 -26 -3 -29 -20 -24 -11 3
-29 9 -40 12 -14 5 -20 2 -20 -9 0 -9 19 -25 45 -36 l45 -20 1 -63 2 -63 9 63
c9 56 12 63 31 60 14 -2 24 -15 33 -43 l12 -40 1 34 c1 26 4 32 17 27 9 -3 20
-6 25 -6 5 0 9 -10 9 -22 1 -21 2 -21 11 -5 5 9 21 17 34 17 21 0 25 -5 26
-32 l2 -33 4 30 c5 30 23 60 23 37 0 -7 4 -12 10 -12 5 0 7 7 4 15 -4 8 -11
15 -18 15 -7 0 -11 21 -11 60 0 35 -4 59 -10 57 -5 -1 -9 -26 -9 -54 1 -53 -6
-62 -34 -45 -8 6 -12 30 -10 77 2 48 -1 70 -9 72 -10 4 -13 -14 -13 -65 0 -65
-1 -70 -20 -65 -21 6 -24 20 -21 89 3 46 -10 62 -29 39z"/>
</g>
</svg>
