<?xml version="1.0" standalone="no"?>
<!DOCTYPE svg PUBLIC "-//W3C//DTD SVG 20010904//EN"
 "http://www.w3.org/TR/2001/REC-SVG-20010904/DTD/svg10.dtd">
<svg version="1.0" xmlns="http://www.w3.org/2000/svg"
 width="50.000000pt" height="50.000000pt" viewBox="0 0 50.000000 50.000000"
 preserveAspectRatio="xMidYMid meet">

<g transform="translate(0.000000,50.000000) scale(0.100000,-0.100000)"
fill="#000000" stroke="none">
<path d="M165 461 c-57 -26 -103 -77 -120 -135 -30 -99 -12 -166 50 -186 20
-7 42 -9 50 -6 11 4 15 -7 17 -47 l3 -52 85 0 85 0 3 52 c2 40 6 51 17 47 8
-3 30 -1 50 6 62 20 80 87 50 186 -36 121 -177 187 -290 135z m15 -138 c49
-33 64 -75 38 -101 -33 -33 -118 7 -118 54 0 59 34 79 80 47z m210 -2 c27 -51
-10 -111 -69 -111 -68 0 -69 66 -1 113 32 22 57 22 70 -2z m-120 -157 c6 -14
10 -27 10 -28 0 -1 -13 -3 -30 -3 -32 0 -36 7 -20 38 15 26 29 24 40 -7z"/>
</g>
</svg>
