<?xml version="1.0" standalone="no"?>
<!DOCTYPE svg PUBLIC "-//W3C//DTD SVG 20010904//EN"
 "http://www.w3.org/TR/2001/REC-SVG-20010904/DTD/svg10.dtd">
<svg version="1.0" xmlns="http://www.w3.org/2000/svg"
 width="50.000000pt" height="50.000000pt" viewBox="0 0 50.000000 50.000000"
 preserveAspectRatio="xMidYMid meet">

<g transform="translate(0.000000,50.000000) scale(0.100000,-0.100000)"
fill="#000000" stroke="none">
<path d="M174 461 c-76 -35 -110 -103 -101 -207 2 -35 14 -82 25 -105 19 -39
20 -43 5 -66 -20 -30 -12 -37 60 -53 61 -13 113 -13 174 0 72 16 80 23 60 53
-15 23 -14 27 5 66 11 23 23 70 25 105 9 104 -25 172 -101 207 -52 24 -100 24
-152 0z m164 -28 c55 -41 67 -68 67 -156 0 -66 -4 -91 -23 -125 -18 -35 -20
-47 -11 -64 9 -16 8 -22 -2 -29 -37 -22 -201 -22 -238 0 -10 7 -11 13 -2 29 9
17 7 29 -10 61 -23 45 -35 131 -25 185 8 43 49 94 91 112 40 19 120 12 153
-13z"/>
<path d="M138 289 c-24 -13 -23 -46 1 -59 29 -15 53 -12 81 10 l25 20 -24 20
c-25 22 -56 25 -83 9z m62 -19 c13 -9 13 -11 0 -20 -30 -20 -71 -5 -55 20 8
13 36 13 55 0z"/>
<path d="M279 280 l-24 -20 25 -20 c40 -32 100 -20 100 20 0 40 -63 52 -101
20z m76 -20 c0 -18 -34 -24 -55 -10 -13 9 -13 11 0 20 21 14 55 8 55 -10z"/>
<path d="M216 198 c-21 -30 -20 -71 2 -91 24 -22 45 -21 65 1 32 35 9 112 -33
112 -10 0 -26 -10 -34 -22z m58 -31 c8 -21 6 -31 -7 -44 -13 -13 -19 -14 -31
-3 -19 15 -20 34 -5 61 13 26 31 20 43 -14z"/>
</g>
</svg>
